<svg width="200px" height="132px" viewBox="0 0 200 132" version="1.1" xmlns="http://www.w3.org/2000/svg">
    <path d="M122.308851,110.192681 C122.863546,109.098758 124.189327,106.876841 125.728067,107.065662 C125.728067,107.065662 126.767675,107.358656 127.016204,107.942772 C127.265616,108.526889 127.555322,108.443936 127.846008,108.526889 C128.136694,108.610728 129.922675,108.735945 130.213263,108.735945 C130.505616,108.735945 131.791204,108.486299 131.87542,108.360983 C131.895224,108.329852 132.078361,107.953117 132.337184,107.405255 C132.06542,107.464859 131.710322,107.464859 131.169439,107.358656 C129.465126,107.025072 128.593263,106.314754 128.593263,106.314754 C128.593263,106.314754 130.54689,103.101277 131.253753,103.101277 C131.959733,103.101277 132.20738,103.185116 132.20738,103.185116 L132.745616,104.228033 C132.745616,104.228033 133.122282,104.437089 133.453361,104.14508 C133.528165,104.080255 133.779243,103.881543 134.131792,103.596332 C134.443067,102.933598 134.658851,102.474798 134.658851,102.474798 C134.658851,102.474798 132.040518,100.972095 130.213263,99.9706538 C128.387773,98.9692131 124.44091,97.1330249 123.443361,96.3397538 C122.445028,95.5464827 122.529341,95.087682 122.779537,93.4182857 C122.779537,93.4182857 112.561498,89.2853353 110.026596,87.741156 C107.492479,86.1970753 100.432871,79.8106123 98.0647334,76.0129205 C98.0647334,76.0129205 97.6907138,75.2611257 96.6527726,76.2211886 C95.6149295,77.1820397 92.2089491,78.3502723 90.7144393,78.2664331 C89.2173805,78.1818057 88.7599295,77.265879 86.4777726,76.6799894 C84.1930667,76.0967597 81.1602236,75.0944323 79.706204,74.3426375 C78.2529687,73.5908427 77.9202236,73.2166694 76.548655,72.9237738 C75.1779687,72.6317649 70.5277726,72.4226101 69.1974785,73.0490894 C67.8689491,73.6755686 65.6255177,75.2611257 64.1714981,76.387882 C62.7182628,77.5147368 62.3855177,77.8914716 61.6804197,78.7261205 C60.9735569,79.5599812 61.3888511,79.3102368 61.1816942,79.1426568 L58.8969883,80.6037849 C58.8969883,80.6037849 58.0250275,77.7246797 59.0208118,76.0967597 C59.0208118,76.0967597 59.4773805,75.7208131 60.1841452,75.9281946 C60.8901256,76.138236 60.8497334,76.5131975 61.2229687,75.8876049 C61.596106,75.2611257 61.2650275,75.0520694 62.3020864,74.3011612 C63.3425766,73.5502531 64.1302236,73.0490894 66.538753,71.6302257 C68.9507138,70.2105738 71.3583609,68.7087575 72.2303216,67.9569627 C73.1022824,67.2061531 74.306106,66.2037271 75.8031648,66.8716827 C77.2967922,67.5405249 78.3767922,67.9154864 79.8308118,68.2490701 C81.2840471,68.5826538 81.6985569,69.4596657 82.9874785,68.8755494 C84.2756158,68.2905464 84.6909099,67.9569627 84.6909099,67.9569627 C84.6909099,67.9569627 81.6176746,65.9955575 80.4138511,65.327602 C79.2074785,64.6587597 77.2142432,63.7411583 76.093753,63.3652116 C74.9715962,62.9902501 74.928655,62.4052471 73.2681648,62.8649346 C71.6068903,63.3237353 68.3247334,64.3260627 66.6229687,65.1184471 C64.9204197,65.9117183 60.6004197,68.4582249 60.3914001,68.2075938 C60.1841452,67.9569627 58.3990471,69.5849812 58.3990471,69.5849812 C58.3990471,69.5849812 57.5684589,66.4119953 58.6897334,65.3699649 L60.2246354,65.0769709 C60.2246354,65.0769709 60.4335569,65.9531946 61.1395373,65.2861257 C61.8455177,64.6172834 61.7629687,64.6172834 62.1800275,63.9502146 C62.5935569,63.282259 63.5489491,62.9902501 64.6693413,62.8649346 C65.7914981,62.739619 64.6289491,63.4075746 67.0383609,62.3646575 C69.4468903,61.3207553 71.4814001,60.6951627 73.308655,59.3999397 C75.1366942,58.1063916 76.7988511,57.480799 77.6304197,58.608442 C78.4593413,59.7343116 81.0347334,61.0702227 82.6547334,61.0702227 C84.2756158,61.0702227 85.4372824,61.0702227 85.7288511,60.736639 C85.9756158,60.4524131 89.0910079,56.3254723 92.011106,55.233296 C89.041106,55.648059 82.591106,56.0999634 80.5367922,52.6393034 C80.5367922,52.6393034 77.0069883,47.6724923 76.4257138,44.4166523 C75.8435569,41.1607138 74.9715962,39.2398983 73.7257138,38.780999 C73.7257138,38.780999 75.6775766,38.2392457 76.3414001,40.451282 C77.0069883,42.6634168 76.4257138,40.283702 76.4257138,40.283702 C76.4257138,40.283702 80.8283609,28.0127279 85.5645373,34.565096 C85.5645373,34.565096 82.4388511,32.0384901 81.6856158,36.6925049 C81.6744393,36.7477738 81.6666942,36.8040279 81.6589491,36.8618583 C80.9529687,41.7448301 82.946204,41.6195146 85.3977726,43.3727501 C87.8466942,45.1259857 94.9071844,49.4663175 96.1558118,51.7199286 C97.4009099,53.9752146 97.4009099,54.4754916 97.4009099,54.4754916 C97.4009099,54.4754916 101.678851,54.9342923 104.337577,55.978096 C106.994635,57.0219983 111.522773,59.6928353 114.181596,62.239342 C116.839439,64.784962 121.490616,67.998439 123.401302,68.8755494 C125.312773,69.7516746 129.964733,70.1690975 130.837577,70.0861449 C130.837577,70.0861449 130.4214,69.5435049 130.256302,69.5849812 C130.089439,69.6264575 129.465126,69.3767131 129.84091,69.4181894 C130.213263,69.4596657 130.464341,69.3767131 130.048165,69.3343501 C129.632871,69.2919871 129.259635,69.0846057 129.757577,69.0423412 C130.256302,69.0008649 130.4214,69.0423412 130.256302,68.7917101 C130.089439,68.5411775 130.005224,68.0822783 130.380126,68.1652309 C130.755028,68.2490701 131.086106,68.415862 130.9614,68.1246412 C130.837577,67.830859 130.672479,67.830859 131.294145,67.830859 C131.918459,67.830859 132.457577,68.0822783 132.249439,67.6649538 C132.040518,67.2476294 132.832479,67.7893827 132.832479,67.7893827 C132.832479,67.7893827 133.203949,67.5811146 133.122282,67.3737331 C133.037969,67.1637901 132.872871,67.0384746 133.286498,67.4143227 C133.702675,67.7893827 133.626988,67.5405249 133.868655,67.5405249 C134.285714,67.5405249 135.364831,67.5811146 135.406106,67.0808375 C135.448263,66.5796738 135.364831,66.4543583 135.613361,66.7887301 C135.862675,67.1223138 136.319341,67.7893827 136.112969,67.3313701 C135.905714,66.8716827 135.779341,66.6211501 136.112969,66.955522 C136.444047,67.2898938 137.317675,67.4143227 137.108655,67.1223138 C136.901498,66.8310931 136.734635,66.4543583 137.068263,66.7048909 C137.399341,66.955522 138.353851,67.2061531 138.271302,66.9140457 C138.188753,66.6211501 137.607479,66.3714057 138.188753,66.6211501 C138.770812,66.8716827 139.5164,67.0808375 139.476792,66.7472538 C139.435518,66.4119953 138.604047,65.7864027 139.435518,66.4119953 C140.265322,67.0384746 141.178557,67.2476294 140.847479,66.8716827 C140.515518,66.4967212 140.099341,66.1614627 140.681498,66.4543583 C141.262773,66.7472538 142.010028,67.0808375 141.844047,66.7472538 C141.678165,66.4119953 141.428753,66.2452034 141.883655,66.5796738 C142.341106,66.9140457 142.218949,66.1207746 142.675616,66.3290427 C143.133067,66.5373109 143.338557,66.8716827 143.133067,66.5373109 C142.924145,66.2037271 142.799439,65.9117183 143.464145,66.2452034 C144.129635,66.5796738 144.959439,66.8310931 144.460714,66.4119953 C143.961106,65.9955575 143.921596,65.9117183 144.501988,66.2037271 C145.084145,66.4967212 145.207969,66.1207746 145.207969,65.9955575 C145.207969,65.870242 145.708459,65.9955575 145.914831,66.0785101 C146.121204,66.1614627 146.452184,65.998119 146.621596,66.1207746 C147.07738,66.4543583 147.409243,66.8310931 147.326694,66.3714057 C147.243263,65.9117183 147.409243,66.0370338 147.783361,66.1614627 C148.158263,66.2875664 149.030126,66.8310931 148.781596,66.3290427 C148.532282,65.827879 148.738655,66.0370338 148.904635,66.1614627 C149.0714,66.2875664 149.320812,65.7449264 149.279537,65.6196109 C149.238263,65.4943938 150.233949,66.1614627 150.233949,66.1614627 C150.233949,66.1614627 149.944243,65.5358701 150.483361,66.0370338 C151.023361,66.5373109 151.356106,66.5796738 151.398263,66.2037271 C151.439537,65.827879 151.398263,65.9117183 152.102479,66.2452034 C152.504929,66.4362309 152.806792,66.5796738 152.951204,66.5891316 C153.016596,66.6781923 153.10689,66.7550368 153.225518,66.7887301 C153.682086,66.9140457 154.470616,67.5811146 154.262577,66.9969983 C154.056204,66.4119953 154.180028,66.5796738 154.470616,67.0384746 C154.762184,67.498162 156.465616,67.873222 155.924733,67.3313701 C155.385518,66.7887301 155.302969,66.4543583 155.882577,66.7887301 C156.465616,67.1223138 157.627282,67.9569627 157.420028,67.5811146 C157.214537,67.2061531 156.714047,66.4543583 157.171596,66.7887301 C157.627282,67.1223138 158.458753,67.5811146 158.376204,67.2061531 C158.291988,66.8310931 158.498361,67.1637901 158.790714,67.4143227 C159.082184,67.6649538 159.705616,67.9154864 159.705616,67.9154864 C159.705616,67.9154864 165.268263,70.043782 163.400518,74.759962 C163.400518,74.759962 163.857184,74.4679531 164.231204,74.3011612 C164.231204,74.3011612 163.817577,75.5541197 164.441008,76.9728849 C165.063557,78.3917486 166.391204,78.5170642 165.146106,81.1041605 C163.900126,83.6929316 163.277577,85.3208516 162.985224,86.3638671 C162.694635,87.4076709 160.494145,98.0091501 156.215322,98.8438975 C156.215322,98.8438975 154.097479,99.5541175 153.391498,97.6747783 C153.391498,97.6747783 151.148067,95.3374264 153.058753,94.6279946 C153.058753,94.6279946 152.934047,94.0438783 153.017479,92.4159583 C153.099145,90.7879397 150.85738,84.9864797 152.394047,83.6514553 C152.394047,83.6514553 144.169243,83.567616 140.888753,88.4920642 L138.977184,91.999422 C138.977184,91.999422 142.134733,94.502679 142.260224,94.502679 C142.384047,94.502679 142.71689,96.130599 142.841596,97.1330249 C142.96542,98.1344657 140.265322,101.014458 139.269635,102.183577 C139.102773,102.377166 138.872282,102.621689 138.604047,102.892122 C138.872282,103.63436 138.9764,104.342906 138.729537,104.853626 C137.897184,106.565385 135.073361,107.901296 134.866106,108.110352 C134.658851,108.31862 131.583067,110.94808 131.294145,111.157136 C131.004341,111.365404 130.54689,111.950407 129.549439,111.365404 C128.551106,110.780401 124.897479,110.86424 124.897479,110.86424 L122.308851,110.788515 L122.308851,166.470457 L121.356988,166.470457 L121.356988,104.930864 L121.832871,104.930864 L121.832871,135.700513 L121.832871,166.470161 L121.832871,135.700513 L121.832871,104.92978 L122.308851,104.930864 L122.308851,110.192681 Z M89.3245373,135.700513 L89.3245373,166.470161 L89.3245373,135.700513 L89.3245373,104.92978 L89.8000275,104.930864 L89.8000275,166.470457 L88.8481648,166.470457 L88.8481648,104.930864 L89.3245373,104.930864 L89.3245373,135.700513 Z M120.881008,135.700513 L120.881008,166.470161 L120.881008,135.700513 L120.881008,104.92978 L121.356988,104.930864 L121.356988,166.470457 L120.405028,166.470457 L120.405028,104.930864 L120.881008,104.930864 L120.881008,135.700513 Z M88.3725766,135.700513 L88.3725766,166.470161 L88.3725766,135.700513 L88.3725766,104.92978 L88.8481648,104.930864 L88.8481648,166.470457 L87.896204,166.470457 L87.896204,104.930864 L88.3725766,104.930864 L88.3725766,135.700513 Z M121.832871,1.82522493 L121.832871,37.5787775 L121.832871,1.82522493 L121.832871,-33.9289188 L122.308851,-33.9283277 L122.308851,37.5794671 L121.356988,37.5794671 L121.356988,-33.9283277 L121.832871,-33.9283277 L121.832871,1.82522493 Z M89.3245373,1.82522493 L89.3245373,37.5787775 L89.3245373,1.82522493 L89.3245373,-33.9289188 L89.8000275,-33.9283277 L89.8000275,37.5794671 L88.8481648,37.5794671 L88.8481648,-33.9283277 L89.3245373,-33.9283277 L89.3245373,1.82522493 Z M120.881008,1.82522493 L120.881008,37.5787775 L120.881008,1.82522493 L120.881008,-33.9289188 L121.356988,-33.9283277 L121.356988,37.5794671 L120.405028,37.5794671 L120.405028,-33.9283277 L120.881008,-33.9283277 L120.881008,1.82522493 Z M88.3725766,1.82522493 L88.3725766,37.5787775 L88.3725766,1.82522493 L88.3725766,-33.9289188 L88.8481648,-33.9283277 L88.8481648,37.5794671 L87.896204,37.5794671 L87.896204,-33.9283277 L88.3725766,-33.9283277 L88.3725766,1.82522493 Z M102.133361,119.492394 L100.866792,121.70709 C98.9242432,121.209375 97.421204,120.204387 96.3540471,118.690552 C95.2877726,117.177504 94.7547334,115.437273 94.7547334,113.472321 C94.7547334,110.893895 95.6119883,108.826089 97.3265962,107.268118 C99.0420864,105.708471 101.162577,104.929879 103.689733,104.929879 C106.458557,104.929879 108.662479,105.713692 110.303165,107.280235 C111.942086,108.846877 112.763263,110.88956 112.763263,113.410058 C112.763263,115.637758 112.138949,117.510201 110.892184,119.027583 L112.485518,119.027583 L112.485518,121.230063 L106.876498,121.230063 L106.876498,119.027583 C108.015028,118.537651 108.894635,117.783295 109.518949,116.763628 C110.141498,115.743961 110.453655,114.670799 110.453655,113.544929 C110.453655,111.848736 109.825028,110.454896 108.570518,109.366168 C107.31591,108.276553 105.731106,107.73214 103.815322,107.73214 C101.848753,107.73214 100.242479,108.316256 98.9964981,109.482814 C97.7496354,110.649372 97.126204,112.031882 97.126204,113.63133 C97.126204,114.94468 97.558753,116.138922 98.4255177,117.216419 C99.2906158,118.293029 100.527086,119.05172 102.133361,119.492394 Z M97.2141452,125.464094 L110.303263,125.464094 L110.303263,123.261515 L112.485714,123.261515 L112.485714,130.224312 L110.303263,130.224312 L110.303263,128.131483 L97.2141452,128.131483 L97.2141452,133.34459 L103.149047,133.34459 L103.149047,135.743319 L95.0309099,135.743319 L95.0309099,123.261515 L97.2141452,123.261515 L97.2141452,125.464094 Z M110.303263,140.968347 L101.569341,140.968347 C100.214145,140.968347 99.2760079,141.035734 98.7583609,141.16962 C98.2381648,141.30528 97.7978707,141.641426 97.4333609,142.179829 C97.0704197,142.719021 96.8881648,143.412 96.8881648,144.26054 C96.8881648,145.271538 97.0446354,146.047469 97.3584589,146.584888 C97.6723805,147.12408 98.0945373,147.481012 98.6260079,147.656375 C99.1564981,147.83095 100.095518,147.919026 101.442969,147.919026 L110.303263,147.919026 L110.303263,145.948951 L112.485616,145.948951 L112.485616,152.605847 L110.303263,152.605847 L110.303263,150.476763 L101.179831,150.476763 C99.9502236,150.476763 99.0567922,150.425829 98.5004197,150.324651 C97.9440471,150.221896 97.3627726,149.947128 96.7557138,149.497785 C96.1495373,149.049329 95.6645373,148.416741 95.2999295,147.601106 C94.9370864,146.785373 94.7547334,145.794277 94.7547334,144.626931 C94.7547334,143.338506 94.9232628,142.26623 95.2629687,141.40902 C95.6017922,140.552698 96.0549295,139.908091 96.6241452,139.476087 C97.1925766,139.043098 97.7996354,138.755424 98.443655,138.612868 C99.0877726,138.470213 100.087773,138.398492 101.442969,138.398492 L110.303263,138.398492 L110.303263,136.294432 L112.485616,136.294432 L112.485616,142.987681 L110.303263,142.987681 L110.303263,140.968347 Z M97.2141452,155.579432 L110.303263,155.579432 L110.303263,153.487391 L112.485714,153.487391 L112.485714,159.152403 C112.485714,160.710375 112.390224,161.879494 112.197675,162.658874 C112.005028,163.438254 111.518361,164.124337 110.735812,164.720571 C109.953361,165.315918 109.035028,165.613247 107.980714,165.613247 C107.169929,165.613247 106.438165,165.436111 105.785518,165.080952 C105.132773,164.727467 104.638361,164.206501 104.303851,163.521206 C103.969439,164.467378 103.415616,165.195824 102.641694,165.705658 C101.867871,166.215491 100.982184,166.470358 99.9872824,166.470358 C99.1256158,166.470358 98.3431648,166.280316 97.6406158,165.900921 C96.9380667,165.522512 96.3946354,165.018688 96.0094393,164.389647 C95.6242432,163.762281 95.3654197,163.074523 95.231204,162.32795 C95.0979687,161.582263 95.0309099,160.563483 95.0309099,159.275058 L95.0309099,153.487391 L97.2141452,153.487391 L97.2141452,155.579432 Z M97.2141452,158.149189 L97.2141452,159.116148 C97.2141452,160.381126 97.2794393,161.306609 97.4084589,161.894173 C97.5382628,162.481738 97.8435569,162.960439 98.3251256,163.332051 C98.8058118,163.702678 99.4231648,163.888483 100.175616,163.888483 C100.861792,163.888483 101.436988,163.71046 101.9014,163.356188 C102.365714,163.001029 102.675224,162.544001 102.829145,161.985795 C102.984831,161.426703 103.062184,160.637766 103.062184,159.617312 L103.062184,158.149189 L97.2141452,158.149189 Z M105.220518,158.149189 L105.220518,159.752085 C105.220518,160.975586 105.439831,161.830235 105.879243,162.315832 C106.318557,162.800543 106.964341,163.044278 107.81738,163.044278 C109.474341,163.044278 110.303263,161.94688 110.303263,159.752085 L110.303263,158.149189 L105.220518,158.149189 Z M97.2141452,-32.5344877 L110.303263,-32.5344877 L110.303263,-34.2609262 L112.485714,-34.2609262 L112.485714,-28.4464617 L110.303263,-28.4464617 L110.303263,-30.2385136 L105.30738,-30.2385136 L105.30738,-23.6265417 L110.303263,-23.6265417 L110.303263,-25.4082491 L112.485714,-25.4082491 L112.485714,-19.5929966 L110.303263,-19.5929966 L110.303263,-21.3306662 L97.2141452,-21.3306662 L97.2141452,-19.5929966 L95.0309099,-19.5929966 L95.0309099,-25.4082491 L97.2141452,-25.4082491 L97.2141452,-23.6265417 L103.125028,-23.6265417 L103.125028,-30.2385136 L97.2141452,-30.2385136 L97.2141452,-28.4464617 L95.0309099,-28.4464617 L95.0309099,-34.2609262 L97.2141452,-34.2609262 L97.2141452,-32.5344877 Z M103.840028,-17.8989706 C106.374929,-17.8989706 108.496302,-17.1783077 110.203165,-15.7352084 C111.909145,-14.2922077 112.762969,-12.4128684 112.762969,-10.0953188 C112.762969,-7.75629211 111.909145,-5.85094396 110.203165,-4.37937285 C108.496302,-2.90780174 106.358557,-2.17167137 103.790126,-2.17167137 C101.17091,-2.17167137 99.0109099,-2.92080618 97.3082628,-4.41828767 C95.6057138,-5.91576915 94.7544393,-7.81934396 94.7544393,-10.1281254 C94.7544393,-11.6005832 95.1576746,-12.9537351 95.9660079,-14.1885662 C96.7725766,-15.4232988 97.8981648,-16.3513432 99.341106,-16.9709262 C100.784831,-17.5896225 102.283557,-17.8989706 103.840028,-17.8989706 Z M103.827969,-15.3965017 C101.911302,-15.3965017 100.305028,-14.9083425 99.0091452,-13.9319254 C97.7115962,-12.9555084 97.0632628,-11.6731914 97.0632628,-10.0840877 C97.0632628,-8.51054989 97.726204,-7.21788841 99.0529687,-6.20521655 C100.378067,-5.19244618 101.961106,-4.68527285 103.802184,-4.68527285 C105.659537,-4.68527285 107.230518,-5.20111581 108.515224,-6.23201359 C109.798165,-7.26369952 110.44042,-8.55813433 110.44042,-10.1168943 C110.44042,-11.6697432 109.808459,-12.9372825 108.546106,-13.9206943 C107.282086,-14.9040077 105.709341,-15.3965017 103.827969,-15.3965017 Z M97.2141452,1.30337233 L110.303263,1.30337233 L110.303263,-0.784235073 L112.485714,-0.784235073 L112.485714,5.39051159 C112.485714,6.68061159 112.371302,7.70451456 112.14091,8.46241752 C111.911302,9.22022196 111.426302,9.84660271 110.685126,10.3426434 C109.945616,10.8377975 109.022969,11.084882 107.918851,11.084882 C105.610028,11.084882 104.158557,10.0410783 103.565224,7.95258419 L97.2141452,10.6381005 L97.2141452,12.4959627 L95.0309099,12.4959627 L95.0309099,9.20288271 L103.187773,5.74133604 L103.187773,3.59836122 L97.2141452,3.59836122 L97.2141452,5.544299 L95.0309099,5.544299 L95.0309099,-0.784235073 L97.2141452,-0.784235073 L97.2141452,1.30337233 Z M105.371008,3.59836122 L105.371008,5.39051159 C105.371008,6.25806567 105.4364,6.89754937 105.565322,7.30965233 C105.695224,7.72096715 105.958263,8.057999 106.3564,8.32064937 C106.752871,8.58251159 107.286792,8.71383678 107.955812,8.71383678 C108.525028,8.71383678 109.005714,8.58073826 109.399537,8.31463974 C109.791694,8.04844271 110.041008,7.72096715 110.14591,7.33122789 C110.250028,6.94158715 110.303263,6.34535308 110.303263,5.544299 L110.303263,3.59836122 L105.371008,3.59836122 Z M95.0306158,13.2280538 L101.367969,13.2280538 L101.367969,15.1299538 L99.8244393,15.1299538 C97.9250275,16.040659 96.9748315,17.2314523 96.9748315,18.7038116 C96.9748315,19.4538331 97.2396354,20.0880953 97.7659099,20.6057116 C98.2930667,21.1232294 98.9826746,21.3816434 99.8364981,21.3816434 C100.66542,21.3816434 101.2614,21.1699271 101.625126,20.7473812 C101.989635,20.325722 102.350812,19.5264412 102.710224,18.3547605 C103.129047,16.9911657 103.523753,15.9828286 103.89689,15.3269909 C104.268361,14.6702664 104.800616,14.1483153 105.490224,13.7577879 C106.180714,13.3680486 106.997675,13.1727849 107.944341,13.1727849 C109.407086,13.1727849 110.576498,13.5978923 111.451008,14.447319 C112.324635,15.2949723 112.763165,16.3612383 112.763165,17.6435553 C112.763165,18.8610471 112.31091,19.9904634 111.407184,21.0317057 L112.574047,21.0317057 L112.574047,22.8894694 L107.278851,22.8894694 L107.278851,21.0317057 L108.4964,21.0317057 C109.842184,20.251439 110.516302,19.1772916 110.516302,17.8077857 C110.516302,16.9764864 110.296988,16.3396627 109.856792,15.8946546 C109.418263,15.4505331 108.892871,15.2275857 108.282282,15.2275857 C107.813655,15.2275857 107.401792,15.3407834 107.045812,15.567179 C106.690714,15.7926879 106.428361,16.0804605 106.261596,16.4303983 C106.093949,16.780336 105.86091,17.469079 105.560812,18.4964301 C105.160028,19.8374642 104.786008,20.8104331 104.438655,21.4144501 C104.091204,22.0193538 103.511694,22.5404183 102.699929,22.9776434 C101.889047,23.4148686 100.955224,23.6334812 99.9018903,23.6334812 C98.4116942,23.6334812 97.181204,23.1754686 96.2104197,22.2621034 C95.2395373,21.3470634 94.7546354,20.2159723 94.7546354,18.8671553 C94.7546354,17.4828716 95.3272824,16.2368094 96.4735569,15.1299538 L95.0306158,15.1299538 L95.0306158,13.2280538 Z M97.2141452,26.9116849 L110.303263,26.9116849 L110.303263,24.9441716 L112.485714,24.9441716 L112.485714,37.578876 L107.228361,37.578876 L107.228361,35.6986501 L110.303263,35.6986501 L110.303263,29.2067723 L105.106988,29.2067723 L105.106988,34.8570064 L102.924635,34.8570064 L102.924635,29.2067723 L97.2141452,29.2067723 L97.2141452,35.6986501 L100.388851,35.6986501 L100.388851,37.578876 L95.0309099,37.578876 L95.0309099,24.9441716 L97.2141452,24.9441716 L97.2141452,26.9116849 Z M64.6335569,7.38531456 L66.4858118,9.40721011 L65.0558118,10.7302153 L72.3114981,18.6564242 L73.7414981,17.3344042 L75.5928707,19.3572849 L65.0918903,29.0635264 L61.6179687,25.2676079 L63.8958118,23.1618731 L65.5192432,24.9341227 L69.2107138,21.5226234 L66.6817922,18.7601642 L63.7006158,21.5148405 L61.8492432,19.4920583 L64.8305177,16.7364953 L61.9541452,13.5955279 L58.2626746,17.0078153 L59.9015962,18.7981923 L57.6229687,20.9039271 L54.1335569,17.091556 L64.6335569,7.38531456 Z M46.7809099,26.9858694 L49.1559099,28.3493657 L47.9494393,30.4715531 L57.2577726,35.8125375 L58.4641452,33.6894634 L55.1888511,31.8109123 L56.5680667,29.3828249 L62.2175766,32.6240842 L54.9403216,45.4307034 L49.2917922,42.1895427 L50.6529687,39.7933753 L53.9282628,41.6719264 L55.1682628,39.488362 L45.8608118,34.147476 L44.6552236,36.2704516 L42.2802236,34.907842 L46.7809099,26.9858694 Z M37.0538511,61.7749257 L34.3805177,61.1985923 L36.0529687,53.3776997 L38.7271844,53.9549197 L38.291204,55.9907064 L41.1718903,55.8231264 L42.0541452,51.6945109 L39.5165962,50.2627412 L39.0616942,52.3883768 L36.3874785,51.8120434 L37.8939491,44.768856 L40.5673805,45.346076 L40.1468903,47.3127027 L49.9624785,52.6734894 L50.4156158,50.5573116 L53.0890471,51.1354183 L50.8696354,61.5174968 L48.1954197,60.9393901 L48.6528707,58.8007501 L37.4606158,59.8782471 L37.0538511,61.7749257 Z M43.6319883,55.6719005 L48.6838511,55.3746701 L44.2218903,52.9172242 L43.6319883,55.6719005 Z M34.0942432,69.8453657 L36.8165962,69.583602 L37.0384589,71.8992797 L47.7070864,70.8701553 L47.486106,68.5544775 L50.2084589,68.290842 L51.0580667,77.1841086 L48.3356158,77.4476457 L48.1095373,75.0843834 L37.4409099,76.1135079 L37.8974785,80.8970746 L42.8788511,80.4166983 L43.1797334,83.5723449 L35.476106,84.3154701 L34.0942432,69.8453657 Z M56.4806158,95.087682 C57.658655,97.6315286 57.8538511,99.9766634 57.066204,102.119638 C56.2793413,104.2635 54.8330667,105.826595 52.7297334,106.809908 C50.6196354,107.795881 48.4957138,107.898636 46.3588511,107.118369 C44.2220864,106.336428 42.5659099,104.676489 41.3921844,102.139539 C40.171106,99.5022968 39.9845373,97.1260301 40.8323805,95.010739 C41.6802236,92.8946597 43.1170864,91.3634849 45.1429687,90.4164264 C47.2385569,89.4374479 49.3564001,89.3311464 51.4958118,90.097522 C53.6352236,90.8648827 55.2964981,92.5282694 56.4806158,95.087682 Z M53.801204,96.3397538 C53.2774785,95.2086627 52.4115962,94.4465234 51.2016942,94.0525479 C49.9927726,93.6584738 48.5730667,93.8442797 46.9410079,94.606419 C45.4989491,95.2803842 44.5256158,96.2084286 44.0191452,97.3904538 C43.5134589,98.5725775 43.5281648,99.7390368 44.061204,100.891802 C44.5840471,102.022006 45.4533609,102.78582 46.6675766,103.181569 C47.8816942,103.577318 49.2867922,103.401955 50.8844393,102.655382 C52.3126746,101.988313 53.2938511,101.068938 53.8304197,99.8989323 C54.3669883,98.7272516 54.3566942,97.5416797 53.801204,96.3397538 Z M51.4280667,118.768381 L53.3369883,116.800868 L54.8864981,118.319038 L62.3692432,110.607895 L60.8188511,109.088838 L62.7277726,107.120438 L67.5964981,111.891099 L64.8138511,123.330774 L69.9508118,118.036487 L68.4425766,116.55802 L70.3523805,114.590506 L75.551302,119.684308 L73.6431648,121.652708 L72.0171844,120.060255 L62.5455177,129.824425 L59.9623805,127.293484 L63.3383609,113.761867 L56.9528707,120.343594 L58.411204,121.772014 L56.5022824,123.740414 L51.4280667,118.768381 Z M75.0083609,4.80432641 L79.1864981,5.72202641 L77.5140471,9.67695382 L73.3359099,8.75925382 L75.0083609,4.80432641 Z M75.0083609,133.950676 L73.3359099,129.995749 L77.5140471,129.078147 L79.1864981,133.033075 L75.0083609,133.950676 Z M122.308851,110.192681 C122.130168,110.545066 122.031498,110.780401 122.031498,110.780401 L122.308851,110.788515 L122.308851,110.192681 Z M136.444047,99.218859 C136.444047,99.218859 136.913459,99.8116449 137.438851,100.634275 C137.885126,100.157346 138.236008,99.7062301 138.397675,99.3441746 C139.061498,97.8423583 139.476792,96.4650694 139.020224,96.0891227 C139.020224,96.0891227 136.236792,94.7956731 135.322675,94.8371494 C134.409537,94.8786257 133.246106,95.1715212 132.832479,95.0462057 C132.41542,94.920102 136.444047,99.218859 136.444047,99.218859 Z M149.003949,64.3335501 C148.819047,63.9930701 148.794145,64.3395597 148.978949,64.593639 C149.089047,64.5996486 149.109733,64.532262 149.003949,64.3335501 Z"></path>
</svg>